<?xml version="1.0" encoding="UTF-8"?>
<!DOCTYPE svg PUBLIC "-//W3C//DTD SVG 1.1//EN" "http://www.w3.org/Graphics/SVG/1.1/DTD/svg11.dtd">
<!-- Creator: CorelDRAW 2020 (64-Bit) -->
<svg xmlns="http://www.w3.org/2000/svg" xml:space="preserve" width="276.048mm" height="360.345mm" version="1.1" style="shape-rendering:geometricPrecision; text-rendering:geometricPrecision; image-rendering:optimizeQuality; fill-rule:evenodd; clip-rule:evenodd"
viewBox="0 0 5156.65 6731.33"
 xmlns:xlink="http://www.w3.org/1999/xlink"
 xmlns:xodm="http://www.corel.com/coreldraw/odm/2003">
 <defs>
  <style type="text/css">
   <![CDATA[
    .fil0 {fill:#2D4255}
    .fil1 {fill:#6E0F27;fill-rule:nonzero}
   ]]>
  </style>
 </defs>
 <g id="Слой_x0020_1">
  <metadata id="CorelCorpID_0Corel-Layer"/>
  <path class="fil0" d="M5156.65 0l-5156.65 0 0 0c0,2836.17 2320.47,5156.65 5156.65,5156.65l0 0 0 -5156.65zm-5156.65 3926.8l0 0 0 1230.02 1229.84 0 0 -0.17c0,-676.37 -553.31,-1229.85 -1229.84,-1229.85z"/>
  <path class="fil1" d="M1356.05 5337.29c38.88,0 73.27,3.83 103.21,11.48 30,7.65 56.74,17.53 80.36,29.62l-29.67 97.56c-26.12,-12.76 -51.3,-22.52 -75.54,-29.17 -24.24,-6.71 -47.81,-10.04 -70.71,-10.04 -30.62,0 -54.35,6.04 -71.27,18.14 -16.86,12.15 -25.35,28.4 -25.35,48.81 0,21.02 7.38,36.94 22.02,47.81 14.64,10.82 38.21,21.35 70.77,31.5l57.35 18.19c47.81,15.92 85.25,38.55 112.31,67.89 27.12,29.34 40.65,65.33 40.65,108.04 0,25.51 -4.77,49.42 -14.31,71.71 -9.59,22.29 -23.9,41.76 -43.04,58.29 -19.13,16.58 -43.04,29.67 -71.71,39.21 -28.67,9.59 -62.17,14.37 -100.39,14.37 -72.05,0 -137.99,-14.7 -197.94,-43.98l29.67 -97.56c27.4,13.42 54.19,23.79 80.31,31.11 26.12,7.32 53.52,10.98 82.19,10.98 33.78,0 59.29,-6.21 76.48,-18.64 17.25,-12.42 25.85,-29.84 25.85,-52.13 0,-7.65 -1.44,-15.14 -4.33,-22.46 -2.83,-7.32 -8.1,-14.31 -15.75,-21.02 -7.65,-6.71 -18.02,-13.37 -31.06,-20.08 -13.09,-6.71 -30.12,-13.26 -51.19,-19.63l-50.64 -17.19c-22.35,-7.65 -42.7,-16.58 -61.23,-26.79 -18.47,-10.15 -34.22,-21.96 -47.31,-35.33 -13.09,-13.42 -23.24,-29.17 -30.62,-47.36 -7.32,-18.14 -10.98,-39.32 -10.98,-63.56 0,-26.12 4.77,-50.19 14.37,-72.21 9.54,-21.96 23.74,-40.93 42.54,-56.85 18.8,-15.97 42.04,-28.4 69.77,-37.33 27.73,-8.93 59.46,-13.37 95.17,-13.37zm316.47 196.94c27.4,-15.92 56.41,-28.18 86.96,-36.77 30.62,-8.65 63.11,-12.92 97.56,-12.92 27.4,0 52.41,3.16 75.04,9.54 22.63,6.38 42.1,16.42 58.35,30.12 16.25,13.7 28.67,31.23 37.27,52.58 8.6,21.35 12.92,47.03 12.92,76.98l0 296.39 -98.5 0 -11.48 -46.81 -3.83 0c-14.64,17.8 -33.28,31.83 -55.91,42.04 -22.63,10.21 -48.92,15.31 -78.87,15.31 -24.9,0 -46.87,-3.66 -66,-10.98 -19.13,-7.38 -35.38,-17.25 -48.75,-29.67 -13.37,-12.42 -23.46,-27.23 -30.12,-44.43 -6.71,-17.25 -10.04,-35.72 -10.04,-55.46 0,-26.18 5.55,-48.64 16.69,-67.44 11.2,-18.8 26.62,-34.22 46.42,-46.37 19.75,-12.09 42.82,-21.02 69.27,-26.73 26.45,-5.77 55.02,-8.65 85.58,-8.65l57.4 0 0 -27.73c0,-21.02 -6.54,-36.49 -19.63,-46.37 -13.03,-9.87 -31.39,-14.81 -54.96,-14.81 -18.47,0 -37.44,2.88 -56.9,8.6 -19.41,5.77 -40.93,14.97 -64.5,27.73l-43.98 -84.14 0 0zm240.93 216.08l-41.1 0.94c-38.88,1.28 -66,7.82 -81.31,19.63 -15.31,11.76 -22.91,25.96 -22.91,42.54 0,21.69 6.49,36.49 19.58,44.48 13.09,7.93 27.9,11.92 44.48,11.92 16.53,0 32.33,-4.77 47.31,-14.31 14.97,-9.59 26.29,-20.74 33.94,-33.5l0 -71.71 -0 0zm235.21 199.83l0 -456.07 98.44 0 14.37 82.25c10.82,-24.24 28.06,-45.59 51.64,-64.06 23.57,-18.53 53.24,-27.73 88.9,-27.73 14.64,0 27.73,1.61 39.21,4.77 11.48,3.16 21.02,6.99 28.67,11.48l-21.02 100.39c-7.04,-3.83 -15.97,-7.15 -26.79,-10.04 -10.82,-2.88 -23.57,-4.33 -38.21,-4.33 -31.28,0 -57.24,10.37 -77.92,31.11 -20.74,20.69 -31.11,54.63 -31.11,101.83l0 230.39 -126.18 0 0 0zm825.11 -226.62c0,36.38 -5.44,69.22 -16.25,98.5 -10.82,29.34 -25.79,54.35 -44.92,75.04 -19.13,20.74 -41.76,36.49 -67.89,47.36 -26.12,10.82 -54.52,16.25 -85.13,16.25 -29.95,0 -55.41,-4.66 -76.48,-13.87 -21.02,-9.26 -39.49,-22.13 -55.46,-38.71l-3.77 0 -8.65 42.04 -91.79 0 0 -682.63 126.23 0 0 263.83c15.92,-14.64 34.55,-26.12 55.91,-34.39 21.35,-8.32 44.15,-12.42 68.38,-12.42 62.45,0 111.37,21.02 146.75,63.11 35.38,42.04 53.08,100.66 53.08,175.87l-0 0zm-131 2.88c0,-47.14 -9.21,-83.03 -27.73,-107.54 -18.47,-24.57 -44.59,-36.83 -78.37,-36.83 -17.86,0 -34.44,4.33 -49.75,12.92 -15.31,8.6 -27.4,18.3 -36.33,29.17l0 209.37c8.32,9.54 18.97,17.53 32.06,23.9 13.03,6.38 26.9,9.54 41.6,9.54 15.25,0 30.12,-2.83 44.43,-8.6 14.37,-5.71 27.12,-14.31 38.27,-25.79 11.15,-11.48 19.91,-26.01 26.29,-43.54 6.38,-17.53 9.54,-38.38 9.54,-62.62l-0 -0zm665.49 -7.65c0,37.6 -6.1,71.44 -18.19,101.39 -12.09,29.95 -28.84,55.3 -50.19,75.98 -21.35,20.74 -46.37,36.66 -75.04,47.81 -28.67,11.15 -59.62,16.75 -92.73,16.75 -33.17,0 -63.95,-5.1 -92.29,-15.31 -28.34,-10.21 -52.91,-25.18 -73.6,-44.92 -20.74,-19.8 -36.99,-44.15 -48.81,-73.15 -11.76,-29.01 -17.64,-62.01 -17.64,-98.94 0,-38.88 6.04,-73.49 18.14,-103.77 12.09,-30.28 28.84,-55.74 50.19,-76.48 21.35,-20.69 46.37,-36.49 75.04,-47.31 28.67,-10.87 59.62,-16.25 92.79,-16.25 33.11,0 63.89,5.1 92.23,15.31 28.4,10.15 52.91,25.01 73.6,44.43 20.74,19.47 36.99,43.81 48.81,73.15 11.76,29.34 17.69,63.11 17.69,101.33l-0 -0zm-131 4.77c0,-26.12 -2.88,-48.42 -8.6,-66.89 -5.77,-18.47 -13.42,-33.5 -22.96,-44.92 -9.54,-11.48 -20.74,-19.97 -33.44,-25.35 -12.76,-5.44 -25.85,-8.15 -39.21,-8.15 -13.42,0 -26.12,2.39 -38.27,7.15 -12.09,4.83 -22.96,12.76 -32.5,23.9 -9.54,11.2 -17.19,26.01 -22.96,44.48 -5.71,18.47 -8.6,41.76 -8.6,69.77 0,24.9 2.88,46.42 8.6,64.56 5.77,18.19 13.59,33 23.46,44.48 9.87,11.48 21.02,20.08 33.44,25.79 12.42,5.77 25.35,8.6 38.71,8.6 13.42,0 26.12,-2.39 38.27,-7.15 12.09,-4.77 22.96,-12.92 32.5,-24.35 9.54,-11.48 17.19,-26.34 22.96,-44.48 5.71,-18.19 8.6,-40.65 8.6,-67.44l0 -0zm348.97 226.62l-127.18 0 0 -456.07 99.44 0 15.31 58.35c21.02,-21.69 44.15,-38.43 69.33,-50.19 25.18,-11.81 53.08,-17.69 83.64,-17.69 50.36,0 88.96,13.7 115.69,41.1 26.79,27.4 40.16,67.28 40.16,119.52l0 304.98 -127.12 0 0 -291.62c0,-23.57 -5.77,-42.21 -17.25,-55.91 -11.48,-13.7 -28.34,-20.58 -50.64,-20.58 -16.58,0 -34,4.66 -52.13,13.87 -18.19,9.26 -34.55,21.85 -49.25,37.77l0 316.47 0 0z"/>
  <g id="_2712285072032">
   <path class="fil1" d="M0.17 6118.47l131 0 0 360.45c0,49.69 10.04,87.46 30.12,113.31 20.08,25.79 51.14,38.71 93.23,38.71 41.43,0 71.38,-13.09 89.85,-39.21 18.47,-26.12 27.73,-59.9 27.73,-101.33l0 -371.93 131 0 0 362.33c0,84.19 -20.91,146.97 -62.62,188.35 -41.76,41.49 -103.77,62.17 -185.96,62.17 -79.09,0 -141.21,-20.69 -186.46,-62.17 -45.26,-41.37 -67.89,-105.77 -67.89,-193.12l0 -357.56 0 -0zm752.45 602.32l-127.18 0 0 -456.07 99.44 0 15.31 58.35c21.02,-21.69 44.15,-38.43 69.33,-50.19 25.18,-11.81 53.08,-17.69 83.64,-17.69 50.36,0 88.96,13.7 115.69,41.1 26.79,27.4 40.16,67.28 40.16,119.52l0 304.98 -127.12 0 0 -291.56c0,-23.63 -5.77,-42.26 -17.25,-55.96 -11.48,-13.7 -28.34,-20.58 -50.64,-20.58 -16.58,0 -33.94,4.66 -52.13,13.87 -18.19,9.26 -34.61,21.85 -49.25,37.77l0 316.47 0 0zm422.62 0l0 -456.07 127.18 0 0 456.07 -127.18 0zm64.06 -553.57c-21.69,0 -38.55,-6.21 -50.69,-18.64 -12.09,-12.42 -18.14,-27.9 -18.14,-46.37 0,-18.53 6.04,-33.94 18.14,-46.37 12.15,-12.48 29.01,-18.69 50.69,-18.69 21.02,0 37.77,6.21 50.19,18.69 12.42,12.42 18.64,27.84 18.64,46.37 0,18.47 -6.04,33.94 -18.14,46.37 -12.15,12.42 -29.01,18.64 -50.69,18.64zm472.32 97.5l134.83 0 -161.62 456.07 -147.2 0 -156.85 -456.07 135.77 0 66.94 227.56 27.73 137.71 3.83 0 27.73 -137.71 68.83 -227.56 -0 0zm597.6 261.06l-303.1 0 0 3.83c0,36.33 12.76,63.39 38.21,81.25 25.51,17.86 58.35,26.79 98.5,26.79 25.51,0 47.97,-2.55 67.39,-7.65 19.47,-5.1 37.16,-11.15 53.08,-18.19l22.96 88.9c-17.25,8.32 -38.88,15.47 -65.06,21.52 -26.12,6.04 -57.02,9.1 -92.73,9.1 -34.39,0 -66.78,-4.6 -97.06,-13.87 -30.23,-9.26 -56.68,-23.4 -79.31,-42.54 -22.63,-19.13 -40.65,-43.37 -54.02,-72.65 -13.42,-29.34 -20.08,-64.39 -20.08,-105.16 0,-36.38 5.38,-69.33 16.25,-99 10.82,-29.62 26.29,-54.96 46.37,-75.98 20.08,-21.08 44.15,-37.49 72.16,-49.25 28.06,-11.81 59.29,-17.69 93.73,-17.69 61.84,0 111.04,18.8 147.7,56.41 36.66,37.6 55.02,90.18 55.02,157.79l0 56.41 -0 0zm-130.06 -87.02c0,-12.09 -1.44,-23.9 -4.33,-35.38 -2.83,-11.48 -7.49,-21.52 -13.87,-30.12 -6.32,-8.6 -14.31,-15.47 -23.9,-20.58 -9.54,-5.1 -21.35,-7.65 -35.33,-7.65 -25.51,0 -46.53,8.65 -63.11,25.85 -16.58,17.19 -26.45,40.49 -29.67,69.77l170.21 -1.88 0 -0zm219.91 282.03l0 -456.07 98.5 0 14.31 82.25c10.87,-24.24 28.06,-45.59 51.64,-64.06 23.57,-18.47 53.24,-27.73 88.9,-27.73 14.7,0 27.73,1.61 39.21,4.77 11.48,3.22 21.02,7.04 28.67,11.48l-21.02 100.39c-6.99,-3.83 -15.92,-7.15 -26.79,-10.04 -10.82,-2.88 -23.57,-4.27 -38.21,-4.27 -31.23,0 -57.24,10.32 -77.92,31.06 -20.74,20.69 -31.06,54.63 -31.06,101.83l0 230.39 -126.23 0 0 0zm648.24 -347.03c-37.6,-17.86 -73.93,-26.79 -108.98,-26.79 -20.41,0 -36.16,3.49 -47.31,10.54 -11.15,6.99 -16.75,16.53 -16.75,28.67 0,12.09 4.94,21.96 14.81,29.62 9.87,7.65 29.78,15.92 59.79,24.85l28.67 8.65c39.49,11.42 69.49,28.01 89.85,49.69 20.41,21.69 30.62,49.69 30.62,84.14 0,45.26 -17.36,81.25 -52.13,108.04 -34.72,26.79 -81.75,40.16 -140.98,40.16 -60.57,0 -112.53,-10.82 -155.85,-32.5l28.67 -93.68c18.47,9.54 37.94,17.36 58.29,23.4 20.41,6.04 41.15,9.1 62.17,9.1 25.51,0 44.15,-3.99 55.91,-11.98 11.81,-7.99 17.69,-18.3 17.69,-31.06 0,-13.37 -5.71,-23.74 -17.19,-31.06 -11.48,-7.38 -33.17,-15.47 -65,-24.4l-29.67 -8.6c-38.21,-12.76 -66.28,-29.67 -84.14,-50.69 -17.8,-21.02 -26.73,-49.08 -26.73,-84.14 0,-41.43 15.58,-75.21 46.81,-101.33 31.23,-26.12 74.93,-39.21 131,-39.21 55.46,0 104.55,9.87 147.25,29.62l-26.79 88.96 -0 0zm151.08 347.03l0 -456.07 127.18 0 0 456.07 -127.18 0zm64.06 -553.57c-21.69,0 -38.55,-6.21 -50.69,-18.64 -12.09,-12.42 -18.14,-27.9 -18.14,-46.37 0,-18.53 6.04,-33.94 18.14,-46.37 12.15,-12.48 29.01,-18.69 50.69,-18.69 21.02,0 37.77,6.21 50.19,18.69 12.42,12.42 18.64,27.84 18.64,46.37 0,18.47 -6.04,33.94 -18.14,46.37 -12.15,12.42 -29.01,18.64 -50.69,18.64zm461.83 189.29l-121.46 0 0 210.37c0,21.69 4.94,36.49 14.81,44.48 9.93,7.93 23.13,11.92 39.71,11.92 12.76,0 25.79,-1.28 39.21,-3.83 13.37,-2.55 24.18,-6.04 32.5,-10.54l19.13 88.96c-10.87,5.1 -27.12,10.21 -48.81,15.31 -21.63,5.05 -44.59,7.6 -68.83,7.6 -55.46,0 -94.95,-10.98 -118.52,-32.94 -23.63,-22.02 -35.38,-55.02 -35.38,-99l0 -232.33 -70.77 0 0 -91.79 70.77 0 0 -140.54 126.18 0 0 140.54 121.46 0 0 91.79 0 0zm499.05 169.27l-303.04 0 0 3.83c0,36.33 12.7,63.39 38.21,81.25 25.51,17.86 58.35,26.79 98.5,26.79 25.51,0 47.97,-2.55 67.39,-7.65 19.47,-5.1 37.16,-11.15 53.08,-18.19l22.96 88.9c-17.25,8.32 -38.88,15.47 -65.06,21.52 -26.12,6.04 -57.02,9.1 -92.73,9.1 -34.39,0 -66.78,-4.6 -97.06,-13.87 -30.23,-9.26 -56.68,-23.4 -79.31,-42.54 -22.63,-19.13 -40.65,-43.37 -54.02,-72.65 -13.42,-29.34 -20.08,-64.39 -20.08,-105.16 0,-36.38 5.38,-69.33 16.25,-99 10.82,-29.62 26.29,-54.96 46.37,-75.98 20.08,-21.08 44.15,-37.49 72.16,-49.25 28.06,-11.81 59.29,-17.69 93.73,-17.69 61.84,0 111.04,18.8 147.7,56.41 36.66,37.6 54.96,90.18 54.96,157.79l0 56.41 -0 0zm-130 -87.02c0,-12.09 -1.44,-23.9 -4.33,-35.38 -2.83,-11.48 -7.49,-21.52 -13.87,-30.12 -6.38,-8.6 -14.31,-15.47 -23.9,-20.58 -9.54,-5.1 -21.35,-7.65 -35.33,-7.65 -25.51,0 -46.53,8.65 -63.11,25.85 -16.58,17.19 -26.45,40.49 -29.67,69.77l170.21 -1.88 0 -0zm492.39 -82.25l-121.41 0 0 210.37c0,21.69 4.94,36.49 14.81,44.48 9.87,7.93 23.13,11.92 39.65,11.92 12.76,0 25.85,-1.28 39.21,-3.83 13.42,-2.55 24.24,-6.04 32.5,-10.54l19.13 88.96c-10.82,5.1 -27.07,10.21 -48.75,15.31 -21.69,5.05 -44.65,7.6 -68.83,7.6 -55.46,0 -95.01,-10.98 -118.58,-32.94 -23.57,-22.02 -35.38,-55.02 -35.38,-99l0 -232.33 -70.71 0 0 -91.79 70.71 0 0 -140.54 126.23 0 0 140.54 121.41 0 0 91.79 0 0zm103.27 364.28l0 -456.07 127.18 0 0 456.07 -127.18 0zm64.06 -553.57c-21.69,0 -38.55,-6.21 -50.69,-18.64 -12.09,-12.42 -18.14,-27.9 -18.14,-46.37 0,-18.53 6.04,-33.94 18.14,-46.37 12.15,-12.48 29.01,-18.69 50.69,-18.69 21.02,0 37.77,6.21 50.19,18.69 12.42,12.42 18.64,27.84 18.64,46.37 0,18.47 -6.04,33.94 -18.14,46.37 -12.15,12.42 -29.01,18.64 -50.69,18.64z"/>
   <path class="fil1" d="M5051.54 6037.17c29.06,0 55.3,11.76 74.32,30.78 19.02,19.02 30.78,45.31 30.78,74.32 0,29.01 -11.76,55.24 -30.78,74.26 -19.02,19.02 -45.26,30.78 -74.32,30.78 -29.01,0 -55.24,-11.76 -74.26,-30.78 -19.02,-19.02 -30.78,-45.26 -30.78,-74.26 0,-29.01 11.76,-55.3 30.78,-74.32 19.02,-19.02 45.26,-30.78 74.26,-30.78zm-46.92 161.28l0 -112.42 49.81 0c10.04,0 17.64,1.05 22.85,3.05 5.21,2 9.37,5.6 12.48,10.7 3.11,5.1 4.66,10.7 4.66,16.92 0,7.99 -2.61,14.7 -7.77,20.19 -5.16,5.44 -13.09,8.93 -23.9,10.37 3.99,1.88 6.93,3.77 8.99,5.6 4.33,3.99 8.43,8.99 12.31,14.97l19.41 30.62 -18.58 0 -14.86 -23.4c-4.27,-6.77 -7.88,-11.92 -10.7,-15.47 -2.77,-3.61 -5.32,-6.1 -7.54,-7.54 -2.16,-1.39 -4.49,-2.39 -6.77,-2.99 -1.66,-0.33 -4.44,-0.5 -8.26,-0.5l-17.25 0 0 49.92 -14.86 0zm14.86 -62.78l31.95 0c6.82,0 12.09,-0.72 15.92,-2.11 3.83,-1.39 6.71,-3.66 8.65,-6.77 2,-3.11 2.99,-6.43 2.99,-10.09 0,-5.27 -1.88,-9.71 -5.77,-13.15 -3.83,-3.38 -9.87,-5.1 -18.19,-5.1l-35.55 0 0 37.21 -0 0zm97.61 -58.96c-16.75,-16.8 -39.93,-27.18 -65.56,-27.18 -25.57,0 -48.75,10.37 -65.56,27.18 -16.75,16.75 -27.12,39.93 -27.12,65.56 0,25.57 10.37,48.75 27.12,65.56 16.8,16.75 39.99,27.12 65.56,27.12 25.62,0 48.81,-10.37 65.56,-27.12 16.8,-16.8 27.18,-39.99 27.18,-65.56 0,-25.62 -10.37,-48.81 -27.18,-65.56z"/>
  </g>
 </g>
</svg>
